<?xml version="1.0" standalone="no"?>
<!DOCTYPE svg PUBLIC "-//W3C//DTD SVG 20010904//EN"
 "http://www.w3.org/TR/2001/REC-SVG-20010904/DTD/svg10.dtd">
<svg version="1.0" xmlns="http://www.w3.org/2000/svg"
 width="1024.000000pt" height="1024.000000pt" viewBox="0 0 1024.000000 1024.000000"
 preserveAspectRatio="xMidYMid meet">

<g transform="translate(0.000000,1024.000000) scale(0.100000,-0.100000)"
fill="#000000" stroke="none">
<path d="M5064 8448 c-46 -71 -191 -323 -309 -538 -32 -58 -84 -148 -115 -200
-32 -52 -83 -142 -115 -200 -32 -58 -80 -144 -106 -191 -63 -111 -63 -124 -1
-151 26 -12 63 -31 82 -43 38 -23 82 -48 320 -175 85 -46 186 -103 225 -127
38 -23 79 -43 90 -43 12 0 70 32 131 70 60 39 151 91 202 116 51 25 117 60
145 78 29 18 105 61 170 95 91 49 117 67 117 83 0 12 -24 60 -53 107 -30 47
-94 158 -144 246 -49 88 -146 257 -215 375 -69 118 -159 274 -201 345 -154
266 -152 265 -223 153z m54 -180 c-5 -24 -12 -191 -16 -372 l-7 -328 -55 -18
c-68 -21 -216 -83 -292 -121 -60 -30 -188 -81 -188 -74 0 2 13 25 29 52 96
159 181 305 181 312 0 4 20 39 45 77 24 38 45 72 45 76 0 3 23 44 50 91 28 47
50 88 50 91 0 3 29 49 64 103 35 54 70 110 77 126 18 41 28 33 17 -15z m151
-191 c46 -78 107 -182 136 -232 134 -232 231 -393 252 -421 30 -41 29 -48 -4
-30 -86 47 -262 127 -354 161 l-106 39 -6 181 c-4 99 -10 240 -14 313 -3 77
-2 132 3 132 5 0 47 -64 93 -143z m-39 -638 c52 -17 147 -56 210 -88 63 -32
148 -70 188 -85 66 -25 71 -29 55 -42 -10 -7 -42 -14 -70 -14 -38 0 -53 -4
-53 -14 0 -7 -9 -16 -21 -19 -12 -3 -18 -10 -14 -16 3 -6 10 -9 15 -6 5 3 11
1 15 -5 6 -10 -6 -14 -39 -10 -10 1 -30 -4 -44 -12 -20 -10 -26 -10 -29 0 -6
15 -43 16 -43 1 0 -6 6 -9 14 -6 24 10 39 -18 21 -37 -9 -9 -21 -13 -27 -10
-5 4 -20 2 -31 -4 -12 -6 -30 -13 -40 -16 -10 -3 -17 -12 -15 -18 3 -7 -37
-38 -92 -71 l-97 -58 -64 39 c-76 46 -344 192 -446 242 l-72 35 222 95 c122
52 253 107 292 122 38 15 70 27 70 27 0 1 43 -13 95 -30z m400 -249 c0 -13
-59 -40 -65 -30 -3 5 1 10 9 10 10 0 13 6 10 15 -5 11 0 14 20 13 14 -1 26 -5
26 -8z"/>
<path d="M6056 8087 c-31 -31 -34 -72 -8 -107 16 -23 17 -90 17 -1057 l0
-1033 -942 0 -943 0 1 873 c1 800 8 1141 25 1255 7 51 -13 82 -56 82 -35 0
-80 -35 -80 -62 0 -31 -190 -219 -292 -289 -184 -126 -380 -230 -633 -337
-187 -80 -306 -116 -570 -174 -60 -14 -118 -28 -127 -32 -12 -6 -21 1 -33 26
-39 75 -88 108 -165 108 -86 0 -161 -53 -198 -140 -19 -43 -19 -70 -21 -762
l-1 -548 -183 0 -184 0 -47 -32 c-56 -37 -83 -76 -92 -134 -8 -59 3 -100 39
-140 60 -69 90 -78 292 -82 l180 -4 0 -704 0 -704 -81 0 c-75 0 -82 -2 -106
-27 -42 -45 -48 -67 -48 -167 l0 -96 -90 0 c-77 0 -93 -3 -110 -20 -23 -23
-26 -58 -6 -85 13 -19 35 -19 686 -17 521 1 677 4 698 14 34 17 45 81 15 93
-10 4 -82 10 -160 13 l-143 5 0 91 c0 109 -11 154 -46 187 -22 21 -36 24 -106
26 -44 1 -83 4 -85 7 -7 7 -9 247 -5 874 l2 512 2681 0 2682 0 -7 -31 c-3 -17
-6 -334 -6 -703 l0 -671 -88 3 c-84 4 -90 3 -121 -24 -48 -40 -61 -79 -61
-183 l0 -89 -132 -5 c-112 -5 -251 -22 -211 -26 6 0 14 -14 18 -31 13 -59 30
-60 762 -60 640 0 653 0 673 20 25 25 26 62 2 83 -15 13 -39 17 -110 17 l-92
0 0 101 c0 163 -32 205 -151 202 -68 -1 -68 -1 -74 29 -4 16 -5 330 -3 697 l3
668 186 6 c160 5 192 8 226 26 121 61 146 193 56 292 -50 55 -81 69 -155 69
-35 0 -120 3 -190 7 l-127 6 -3 653 -3 652 -30 43 c-17 24 -46 54 -65 67 -30
21 -45 23 -106 20 -60 -3 -77 -8 -109 -32 -20 -16 -46 -44 -58 -63 -16 -29
-25 -34 -46 -30 -322 59 -483 109 -764 241 -255 119 -401 202 -557 320 -129
96 -267 230 -275 266 -8 37 -35 60 -78 67 -29 4 -40 1 -61 -20z m192 -296 c31
-27 104 -87 162 -133 78 -62 105 -89 104 -106 0 -12 -1 -391 -2 -842 l-2 -820
-162 2 -163 3 -3 973 c-1 534 0 972 4 972 3 0 31 -22 62 -49z m-2181 -913 c-4
-524 -7 -961 -7 -970 0 -16 -14 -18 -155 -18 l-155 0 0 829 c0 456 -3 836 -6
844 -4 11 26 37 102 88 60 41 133 97 164 126 30 29 57 52 59 53 2 0 1 -429 -2
-952z m-427 -168 l0 -820 -175 0 -175 0 -2 721 c-2 396 -1 724 2 728 3 4 48
26 100 50 120 55 191 95 215 121 10 11 22 20 27 20 4 0 8 -369 8 -820z m3167
714 c165 -86 165 -87 159 -116 -3 -17 -6 -342 -6 -722 l0 -691 -165 0 -165 -1
0 808 c0 444 3 808 6 808 3 0 80 -39 171 -86z m-3629 -826 l-3 -703 -172 -3
-173 -2 -2 639 -3 640 115 36 c63 21 140 50 170 66 30 15 58 28 63 29 4 0 6
-316 5 -702z m3949 671 c26 -12 104 -41 173 -65 l125 -43 -2 -633 -3 -633
-172 0 -173 0 0 697 c0 384 1 698 2 698 1 0 23 -10 50 -21z m-4834 -69 l25
-29 3 -828 c5 -967 -1 -1949 -11 -1913 -8 30 -30 -102 -30 -180 l0 -50 -40 0
c-22 0 -40 -4 -40 -10 0 -5 -3 -10 -8 -10 -4 0 -13 30 -21 68 -19 100 -28
2876 -9 2912 14 26 73 70 94 70 7 0 23 -13 37 -30z m5753 5 c47 -32 46 0 41
-1347 -3 -1120 -6 -1287 -21 -1393 -17 -127 -44 -253 -55 -259 -3 -2 -22 -7
-42 -10 l-36 -5 -6 82 c-12 151 -8 2856 4 2880 14 28 60 67 79 67 9 0 25 -7
36 -15z m-5336 -686 l0 -630 -132 3 -133 3 0 133 c0 72 1 343 3 600 l2 468 83
14 c45 7 100 19 122 25 22 7 43 13 48 14 4 1 7 -283 7 -630z m5094 -27 c1
-484 -1 -593 -12 -597 -8 -3 -67 -5 -133 -5 l-119 0 0 623 0 624 132 -27 131
-27 1 -591z m-5773 -784 c-1 -35 -8 -66 -15 -70 -6 -4 -77 -8 -158 -8 -143 0
-147 1 -177 26 -36 30 -39 59 -9 91 21 22 27 23 192 23 l171 0 -4 -62z m5759
-7 l0 -69 -292 -1 c-161 -1 -1363 -3 -2670 -5 l-2378 -3 0 73 0 73 2670 1
2670 0 0 -69z m801 38 c33 -35 36 -51 13 -73 -13 -13 -43 -16 -173 -16 -87 0
-172 -3 -188 -6 l-30 -6 1 66 1 66 173 0 174 0 29 -31z m-531 -1763 c206 -1
265 -4 264 -13 -1 -7 -2 -44 -2 -83 -2 -69 -2 -70 -29 -70 -34 0 -47 9 -51 35
-2 11 -9 23 -15 27 -26 16 -155 30 -217 24 -36 -4 -91 -10 -123 -13 -33 -3
-88 0 -127 7 -82 16 -103 6 -93 -41 3 -18 1 -29 -6 -29 -12 0 -15 87 -5 139
l7 32 66 -7 c36 -5 185 -8 331 -8z m-5484 -11 c3 -7 1 -41 -4 -74 -6 -40 -5
-64 2 -71 7 -7 -19 -9 -85 -8 -89 1 -91 2 -30 7 96 9 91 23 -27 67 -23 9 -363
-9 -414 -21 -32 -8 -36 -20 -11 -29 27 -11 -3 -26 -49 -26 l-38 0 0 78 c0 43
2 81 5 83 2 3 149 6 325 6 262 1 322 -1 326 -12z"/>
<path d="M5788 7015 c-13 -7 -81 -44 -153 -83 -71 -38 -168 -93 -215 -123 -47
-29 -128 -76 -181 -105 l-97 -53 -108 58 c-60 31 -129 70 -154 86 -51 32 -403
209 -438 220 -27 8 -62 -17 -62 -45 0 -9 16 -32 36 -51 20 -18 108 -124 197
-234 88 -110 221 -273 294 -362 73 -89 146 -182 163 -206 56 -83 63 -83 131 1
26 31 97 118 159 192 62 74 165 205 229 290 63 85 155 204 204 263 85 104 88
109 73 131 -19 30 -48 37 -78 21z m-859 -385 l174 -97 1 -133 1 -132 -79 83
c-43 46 -112 127 -154 179 -41 52 -90 111 -107 130 -18 19 -45 53 -61 75 l-29
39 40 -23 c22 -14 118 -68 214 -121z m589 73 c-30 -32 -94 -107 -141 -168 -89
-114 -192 -243 -209 -260 -17 -18 2 228 20 248 13 15 89 63 315 200 34 20 64
37 67 37 2 0 -21 -26 -52 -57z"/>
<path d="M5010 5284 c-306 -37 -505 -112 -750 -282 -138 -97 -315 -273 -391
-389 -184 -285 -268 -597 -256 -955 9 -282 78 -509 227 -748 128 -206 297
-361 546 -504 83 -47 274 -123 383 -151 87 -22 271 -45 365 -45 300 0 626 106
886 288 84 60 279 249 340 332 192 260 290 560 290 884 0 506 -180 907 -545
1213 -150 126 -277 205 -427 264 -62 24 -222 65 -298 75 -30 4 -64 9 -75 10
-41 6 -261 12 -295 8z m390 -150 c175 -29 349 -99 507 -205 94 -63 311 -278
377 -373 130 -189 209 -420 237 -696 30 -302 -43 -617 -204 -875 -55 -87 -128
-175 -140 -168 -7 3 -9 2 -4 -2 10 -11 -23 -46 -36 -38 -5 3 -7 1 -4 -4 4 -6
-3 -19 -16 -29 -12 -10 -16 -12 -9 -4 6 8 12 21 12 29 0 9 -11 -4 -23 -29 -13
-25 -29 -44 -35 -42 -7 1 -11 -3 -10 -9 2 -6 -2 -13 -7 -15 -6 -3 -9 14 -7 41
2 25 7 45 11 45 9 0 31 46 31 65 0 18 -165 33 -192 16 -10 -6 -33 -11 -52 -11
-24 0 -35 -5 -39 -19 -2 -10 -17 -21 -33 -25 -53 -13 -84 -31 -84 -48 0 -10
-6 -18 -14 -18 -7 0 -16 -9 -19 -21 -3 -11 -15 -23 -26 -26 -12 -3 -21 -12
-21 -19 0 -8 -7 -14 -15 -14 -8 0 -19 -9 -25 -20 -6 -11 -18 -20 -27 -20 -9 0
-26 -9 -38 -20 -11 -10 -36 -22 -55 -24 -19 -3 -65 -14 -102 -25 -59 -17 -95
-19 -275 -18 -200 2 -209 3 -240 25 -23 16 -33 19 -34 10 0 -10 -2 -10 -6 0
-2 6 -13 12 -23 12 -10 0 -25 6 -32 13 -7 7 -33 19 -58 27 -25 7 -50 19 -55
25 -6 7 -29 16 -53 20 -23 4 -42 10 -42 15 0 9 -57 24 -82 22 -10 -1 -18 2
-18 6 0 13 -41 33 -53 25 -22 -14 -111 -41 -119 -37 -4 3 -5 -2 -2 -11 4 -9 9
-14 12 -11 3 3 12 -2 21 -12 9 -10 31 -25 49 -33 17 -7 32 -18 32 -22 0 -4 14
-13 30 -18 17 -6 30 -15 30 -20 0 -5 8 -9 18 -9 10 0 27 -7 38 -15 12 -8 25
-11 29 -7 5 4 5 2 2 -4 -4 -7 7 -19 28 -28 47 -23 45 -30 -2 -11 -61 26 -164
84 -228 130 -86 61 -196 165 -188 177 3 6 1 8 -4 5 -14 -9 -96 80 -87 95 4 6
3 8 -4 4 -14 -9 -109 136 -166 254 -48 100 -89 246 -107 382 -17 124 -6 443
19 549 67 283 177 483 370 671 311 303 609 423 1017 412 83 -2 193 -11 245
-20z m-307 -2791 c-7 -2 -19 -2 -25 0 -7 3 -2 5 12 5 14 0 19 -2 13 -5z"/>
<path d="M5235 4861 c-52 -13 -75 -31 -106 -79 -25 -39 -29 -56 -29 -113 0
-37 -4 -71 -10 -74 -6 -4 -10 26 -10 84 0 81 -2 92 -25 120 -57 67 -189 81
-259 27 -51 -39 -60 -61 -66 -156 l-5 -85 -65 3 c-36 1 -112 0 -169 -4 -99 -6
-105 -7 -140 -39 l-35 -33 -4 -105 c-7 -168 31 -217 165 -217 l71 0 7 -424 c4
-233 4 -429 1 -435 -4 -6 -40 -11 -86 -11 -76 0 -79 -1 -108 -34 -35 -40 -47
-103 -40 -217 4 -67 6 -73 41 -105 l37 -34 168 0 167 0 0 -109 c0 -107 1 -110
31 -147 54 -67 78 -79 154 -79 77 0 107 16 148 75 19 29 22 46 22 136 0 57 4
104 9 104 5 0 8 -45 7 -99 -1 -95 0 -101 29 -143 42 -59 86 -81 153 -74 56 5
129 43 153 80 9 14 15 63 17 139 l4 117 32 0 c37 0 122 27 184 59 23 12 73 50
110 86 201 189 215 531 29 719 l-48 48 36 72 c82 163 65 338 -48 485 -59 77
-165 142 -269 165 -26 6 -26 7 -30 105 -3 109 -16 139 -75 173 -35 21 -106 30
-148 19z m82 -126 c19 -14 22 -26 25 -134 1 -66 6 -122 9 -125 3 -3 32 -11 65
-17 119 -22 235 -107 283 -209 22 -46 26 -69 26 -140 0 -101 -22 -159 -85
-221 -31 -31 -40 -47 -40 -74 0 -31 5 -37 48 -59 128 -65 205 -234 172 -377
-16 -71 -73 -172 -124 -223 -68 -68 -132 -96 -249 -109 l-102 -12 -5 -142 c-3
-78 -8 -144 -11 -148 -4 -3 -22 -8 -42 -12 -27 -4 -39 -1 -56 16 -19 19 -21
32 -21 137 0 63 -5 124 -10 135 -9 17 -22 19 -99 19 -65 0 -92 -4 -101 -14 -7
-9 -14 -64 -17 -133 -3 -65 -10 -124 -15 -130 -6 -7 -25 -15 -44 -19 -59 -11
-64 2 -64 146 0 90 -4 131 -12 138 -7 6 -97 14 -200 18 l-188 7 0 42 c0 23 3
56 6 73 l6 30 90 4 c71 2 92 7 102 20 23 31 32 1014 10 1049 -14 23 -75 39
-149 39 l-75 0 0 75 0 75 158 1 c86 0 175 3 197 7 l40 7 8 110 c12 159 10 155
57 155 59 0 70 -23 70 -146 0 -82 3 -104 17 -115 20 -17 167 -19 183 -3 7 7
16 62 21 124 10 122 11 127 43 140 31 13 49 12 73 -5z"/>
<path d="M4925 4269 c-3 -19 -5 -116 -3 -216 3 -159 5 -185 21 -200 16 -16 38
-18 195 -18 200 0 227 8 292 81 110 126 72 285 -85 355 -44 20 -71 23 -232 27
l-182 4 -6 -33z m358 -103 c37 -16 72 -51 82 -84 9 -29 -29 -109 -57 -117 -11
-4 -76 -4 -144 0 l-124 7 0 104 0 104 105 0 c67 0 117 -5 138 -14z"/>
<path d="M4940 3670 c-19 -19 -20 -33 -20 -223 0 -183 2 -206 18 -220 15 -13
51 -17 217 -19 192 -3 202 -2 252 21 59 26 127 94 150 149 22 53 19 140 -6
191 -27 52 -88 96 -152 110 -27 6 -138 11 -244 11 -182 0 -196 -1 -215 -20z
m357 -110 c76 0 85 -2 113 -27 58 -54 43 -125 -39 -180 -31 -21 -45 -23 -177
-23 l-144 0 0 121 0 122 83 -6 c45 -4 119 -7 164 -7z"/>
</g>
</svg>
